<svg height="24" viewBox="0 0 24 24" width="24" xmlns="http://www.w3.org/2000/svg"><path d="m21.25 7.5c.3796958 0 .693491.28215388.7431534.64822944l.0068466.10177056v8.5c0 1.7330315-1.3564548 3.1492459-3.0655761 3.2448552l-.1844239.0051448h-12.689l.71933009.7196699c.26626656.2662666.29047261.6829303.07261815.9765418l-.07261815.0841184c-.26626657.2662665-.68293025.2904726-.97654174.0726181l-.08411844-.0726181-2-2-.06339799-.0720275c-.00244939-.0031685-.00487398-.0063571-.00727348-.0095656l.07067147.0815931c-.03705327-.0370533-.06941902-.077019-.09709724-.1191603-.01316484-.0201549-.025545-.0411423-.03690171-.0627516-.00483354-.0091218-.00919014-.0178526-.01336588-.0266478-.01274712-.0267885-.02425172-.0552483-.03400215-.0845099-.00225837-.0069437-.00418282-.0130149-.00602813-.019105-.02092163-.0684786-.0322748-.1419912-.0322748-.2181555 0-.0383922.00288471-.0761107.00844919-.1129505.00180466-.0115676.0038603-.0232773.00619514-.0349422.00494363-.0250031.01111685-.0492994.01844184-.073091.00362656-.0116598.00765847-.0237092.01200456-.0356703.00848426-.0232976.01778613-.0453662.02808241-.0668678.00549219-.0116011.01179514-.0239381.01846187-.0361292.01323523-.0240158.02734042-.0467392.04258121-.0686124.00392129-.0057417.00832657-.0118713.01283554-.0179483.0251194-.0332177.04801831-.0595185.07261815-.0841184l2-2c.29289322-.2928932.76776696-.2928932 1.06066018 0 .26626656.2662666.29047261.6829303.07261815.9765418l-.07261815.0841184-.72033009.7196699h12.69c.9181734 0 1.6711923-.7071103 1.7441988-1.6064728l.0058012-.1435272v-8.5c0-.41421356.3357864-.75.75-.75zm-3.0537883-5.35294824.0841184.07261815 2 2c.0254481.02544812.049076.05271652.0706715.08159313l-.0706715-.08159313c.0370533.03705328.069419.07701901.0970972.1191603.0131649.02015493.025545.04114226.0369017.06275154.0048336.00912187.0091902.01785262.0133659.02664784.0127471.02678853.0242517.0552483.0340022.08450994.0022583.00694369.0041828.01301489.0060281.01910493.0209216.06847868.0322748.14199127.0322748.21815554 0 .03839224-.0028847.07611073-.0084492.11295053-.0014988.0095454-.0031606.01924362-.0050138.02891241-.0051364.02710922-.0117072.05340972-.0196232.07912072-.0036265.0116598-.0076584.02370928-.0120045.03567032-.0084843.02329763-.0177862.04536621-.0280824.06686781-.0054922.01160108-.0117952.02393815-.0184619.03612923-.0132352.02401575-.0273404.04673917-.0425812.06861233-.0039213.00574174-.0083266.01187138-.0128356.0179483-.023778.03144192-.0451015.05615345-.0679264.07938506l-.0046917.00473338-2 2c-.2928932.29289321-.767767.29289321-1.0606602 0-.2662665-.26626657-.2904726-.68293025-.0726181-.97654174l.0726181-.08411844.7183301-.71966991h-12.688c-.9181734 0-1.67119234.70711027-1.7441988 1.60647279l-.0058012.14352721v8.5c0 .4142136-.33578644.75-.75.75-.37969577 0-.69349096-.2821539-.74315338-.6482294l-.00684662-.1017706v-8.5c0-1.73303146 1.35645477-3.14924593 3.06557609-3.24485521l.18442391-.00514479h12.689l-.7193301-.71966991c-.2662665-.26626657-.2904726-.68293025-.0726181-.97654174l.0726181-.08411844c.2662666-.26626656.6829303-.29047261.9765418-.07261815zm-6.1962117 5.85294824c2.209139 0 4 1.790861 4 4s-1.790861 4-4 4-4-1.790861-4-4 1.790861-4 4-4zm0 1.5c-1.3807119 0-2.5 1.1192881-2.5 2.5s1.1192881 2.5 2.5 2.5 2.5-1.1192881 2.5-2.5-1.1192881-2.5-2.5-2.5z" fill="#212121"/></svg>